<svg xmlns="http://www.w3.org/2000/svg" version="1.1" xmlns:xlink="http://www.w3.org/1999/xlink" xmlns:svgjs="http://svgjs.dev/svgjs" width="1500" height="231" viewBox="0 0 1500 231"><g transform="matrix(1,0,0,1,-0.9090909090909918,-0.3100396817900304)"><svg viewBox="0 0 396 61" data-background-color="#000000" preserveAspectRatio="xMidYMid meet" height="231" width="1500" xmlns="http://www.w3.org/2000/svg" xmlns:xlink="http://www.w3.org/1999/xlink"><g id="tight-bounds" transform="matrix(1,0,0,1,0.2400000000000091,0.08187195060256158)"><svg viewBox="0 0 395.52 60.83625609879488" height="60.83625609879488" width="395.52"><g><svg viewBox="0 0 660.2690991821165 101.5582018910898" height="60.83625609879488" width="395.52"><g transform="matrix(1,0,0,1,264.74909918211654,7.746901183357025)"><svg viewBox="0 0 395.52 86.06439952437574" height="86.06439952437574" width="395.52"><g id="textblocktransform"><svg viewBox="0 0 395.52 86.06439952437574" height="86.06439952437574" width="395.52" id="textblock"><g><svg viewBox="0 0 395.52 86.06439952437574" height="86.06439952437574" width="395.52"><g transform="matrix(1,0,0,1,0,0)"><svg width="395.52" viewBox="2.35 -36 169.44 36.6" height="86.06439952437574" data-palette-color="url(#b05a1b1e-1495-4140-8e2c-21e9dfff5ccc)"><g class="wordmark-text-0" data-fill-palette-color="primary" id="text-0"></g></svg></g></svg></g></svg></g></svg></g><g><svg viewBox="0 0 244.43135999999998 101.5582018910898" height="101.5582018910898" width="244.43135999999998"><g><svg xmlns="http://www.w3.org/2000/svg" xmlns:xlink="http://www.w3.org/1999/xlink" version="1.1" x="0" y="0" viewBox="6.533 31.94 86.93400000000001 36.120000000000005" enable-background="new 0 0 100 100" xml:space="preserve" height="101.5582018910898" width="244.43135999999998" class="icon-icon-0" data-fill-palette-color="accent" id="icon-0"></svg></g></svg></g></svg></g><defs></defs><mask id="c7307479-862e-4137-8298-05f118316491"><g id="SvgjsG1020"><svg viewBox="0 0 395.52 60.83625609879488" height="60.83625609879488" width="395.52"><g><svg viewBox="0 0 660.2690991821165 101.5582018910898" height="60.83625609879488" width="395.52"><g transform="matrix(1,0,0,1,264.74909918211654,7.746901183357025)"><svg viewBox="0 0 395.52 86.06439952437574" height="86.06439952437574" width="395.52"><g id="SvgjsG1019"><svg viewBox="0 0 395.52 86.06439952437574" height="86.06439952437574" width="395.52" id="SvgjsSvg1018"><g><svg viewBox="0 0 395.52 86.06439952437574" height="86.06439952437574" width="395.52"><g transform="matrix(1,0,0,1,0,0)"><svg width="395.52" viewBox="2.35 -36 169.44 36.6" height="86.06439952437574" data-palette-color="url(#b05a1b1e-1495-4140-8e2c-21e9dfff5ccc)"><g class="wordmark-text-0" data-fill-palette-color="primary" id="SvgjsG1017"><path d="M19.05 0.6L19.05 0.6Q13.9 0.6 10.18-1.68 6.45-3.95 4.4-8.03 2.35-12.1 2.35-17.5L2.35-17.5Q2.35-22.85 4.4-26.93 6.45-31 10.18-33.3 13.9-35.6 19.05-35.6L19.05-35.6Q25.05-35.6 28.83-32.73 32.6-29.85 33.65-24.7L33.65-24.7 29-24.7Q28.2-27.95 25.73-29.93 23.25-31.9 19.05-31.9L19.05-31.9Q15.3-31.9 12.5-30.18 9.7-28.45 8.18-25.23 6.65-22 6.65-17.5L6.65-17.5Q6.65-13 8.18-9.78 9.7-6.55 12.5-4.83 15.3-3.1 19.05-3.1L19.05-3.1Q23.25-3.1 25.73-5.03 28.2-6.95 29-10.15L29-10.15 33.65-10.15Q32.6-5.1 28.83-2.25 25.05 0.6 19.05 0.6ZM47.7 0.6L47.7 0.6Q44.6 0.6 42.55-0.45 40.5-1.5 39.5-3.25 38.5-5 38.5-7.05L38.5-7.05Q38.5-10.85 41.4-12.9 44.3-14.95 49.3-14.95L49.3-14.95 56-14.95 56-15.25Q56-18.5 54.3-20.18 52.6-21.85 49.75-21.85L49.75-21.85Q47.3-21.85 45.52-20.63 43.75-19.4 43.3-17.05L43.3-17.05 39-17.05Q39.25-19.75 40.82-21.6 42.4-23.45 44.75-24.43 47.1-25.4 49.75-25.4L49.75-25.4Q54.95-25.4 57.57-22.63 60.2-19.85 60.2-15.25L60.2-15.25 60.2 0 56.45 0 56.2-4.45Q55.15-2.35 53.12-0.88 51.1 0.6 47.7 0.6ZM48.35-2.95L48.35-2.95Q50.75-2.95 52.47-4.2 54.2-5.45 55.1-7.45 56-9.45 56-11.65L56-11.65 56-11.7 49.65-11.7Q45.95-11.7 44.42-10.43 42.9-9.15 42.9-7.25L42.9-7.25Q42.9-5.3 44.32-4.13 45.75-2.95 48.35-2.95ZM70.7 0L66.5 0 66.5-24.8 70.3-24.8 70.64-20.05Q71.8-22.5 74.15-23.95 76.5-25.4 79.95-25.4L79.95-25.4 79.95-21 78.8-21Q76.59-21 74.75-20.23 72.9-19.45 71.8-17.6 70.7-15.75 70.7-12.5L70.7-12.5 70.7 0ZM105.39 0L84.89 0 84.89-35 89.09-35 89.09-3.35 105.39-3.35 105.39 0ZM113.44-30.3L113.44-30.3Q112.19-30.3 111.37-31.13 110.54-31.95 110.54-33.2L110.54-33.2Q110.54-34.4 111.37-35.2 112.19-36 113.44-36L113.44-36Q114.64-36 115.49-35.2 116.34-34.4 116.34-33.2L116.34-33.2Q116.34-31.95 115.49-31.13 114.64-30.3 113.44-30.3ZM115.54 0L111.34 0 111.34-24.8 115.54-24.8 115.54 0ZM134.84 0L129.99 0 120.59-24.8 124.99-24.8 132.44-4.05 139.94-24.8 144.24-24.8 134.84 0ZM160.04 0.6L160.04 0.6Q156.49 0.6 153.74-1.03 150.99-2.65 149.41-5.55 147.84-8.45 147.84-12.4L147.84-12.4Q147.84-16.3 149.39-19.23 150.94-22.15 153.71-23.78 156.49-25.4 160.14-25.4L160.14-25.4Q163.74-25.4 166.36-23.78 168.99-22.15 170.39-19.5 171.79-16.85 171.79-13.8L171.79-13.8Q171.79-13.25 171.76-12.7 171.74-12.15 171.74-11.45L171.74-11.45 151.99-11.45Q152.14-8.6 153.31-6.73 154.49-4.85 156.26-3.9 158.04-2.95 160.04-2.95L160.04-2.95Q162.64-2.95 164.39-4.15 166.14-5.35 166.94-7.4L166.94-7.4 171.09-7.4Q170.09-3.95 167.26-1.68 164.44 0.6 160.04 0.6ZM160.04-21.85L160.04-21.85Q157.04-21.85 154.71-20.03 152.39-18.2 152.04-14.7L152.04-14.7 167.64-14.7Q167.49-18.05 165.34-19.95 163.19-21.85 160.04-21.85Z" fill="white"></path></g></svg></g></svg></g></svg></g></svg></g><g><svg viewBox="0 0 244.43135999999998 101.5582018910898" height="101.5582018910898" width="244.43135999999998"><g><svg xmlns="http://www.w3.org/2000/svg" xmlns:xlink="http://www.w3.org/1999/xlink" version="1.1" x="0" y="0" viewBox="6.533 31.94 86.93400000000001 36.120000000000005" enable-background="new 0 0 100 100" xml:space="preserve" height="101.5582018910898" width="244.43135999999998" class="icon-icon-0" data-fill-palette-color="accent" id="SvgjsSvg1016"><g fill="black"><g fill="black"><path fill="black" d="M80.537 60.971c-0.801 0-1.465 0.575-1.604 1.333-0.018 0.097-0.027 0.194-0.027 0.296 0 0.476 0.205 0.902 0.527 1.199 0.291 0.268 0.676 0.431 1.104 0.431 0.424 0 0.809-0.163 1.1-0.431 0.324-0.297 0.529-0.724 0.529-1.199 0-0.102-0.012-0.199-0.027-0.296C81.998 61.546 81.334 60.971 80.537 60.971z"></path><path fill="black" d="M38.76 61.671c-0.293-0.424-0.783-0.701-1.336-0.701-0.555 0-1.045 0.277-1.338 0.701-0.129 0.187-0.223 0.401-0.266 0.633-0.016 0.097-0.027 0.194-0.027 0.296 0 0.476 0.203 0.901 0.529 1.199 0.289 0.267 0.676 0.431 1.102 0.431 0.424 0 0.811-0.164 1.1-0.431 0.326-0.298 0.529-0.724 0.529-1.199 0-0.102-0.01-0.199-0.027-0.296C38.982 62.072 38.891 61.857 38.76 61.671z"></path><path fill="black" d="M78.563 41.781c-0.094 2.423-0.047 4.847-0.023 7.271 2.33 0 4.639 0.022 6.973-0.024-0.641-2.423-1.418-4.8-2.059-7.2C81.832 41.758 80.184 41.781 78.563 41.781z"></path><path d="M37.676 57.142h-0.027c-2.691 0.007-4.926 1.961-5.365 4.529-0.053 0.302-0.082 0.612-0.082 0.929 0 3.015 2.445 5.46 5.461 5.46s5.459-2.445 5.459-5.46c0-0.316-0.029-0.627-0.08-0.929C42.6 59.103 40.367 57.148 37.676 57.142zM38.764 63.799c-0.291 0.267-0.676 0.431-1.102 0.431s-0.811-0.164-1.102-0.431c-0.324-0.298-0.527-0.724-0.527-1.199 0-0.102 0.01-0.199 0.027-0.296 0.043-0.231 0.135-0.446 0.264-0.633 0.295-0.424 0.783-0.701 1.338-0.701s1.043 0.277 1.338 0.701c0.129 0.187 0.221 0.401 0.264 0.633 0.018 0.097 0.029 0.194 0.029 0.296C39.293 63.075 39.088 63.501 38.764 63.799z" fill="black"></path><path d="M35.463 57.142h-4.605v4.529h0.842c0.004-0.019 0.006-0.038 0.01-0.058C32.072 59.501 33.541 57.827 35.463 57.142z" fill="black"></path><polygon points="71.568,35.853 81.359,35.853 81.359,31.94 30.764,31.94 30.764,55.259 71.568,55.259   " fill="black"></polygon><path d="M81.018 57.142c-3.016 0-5.461 2.443-5.461 5.458s2.445 5.46 5.461 5.46c3.014 0 5.459-2.445 5.459-5.46S84.031 57.142 81.018 57.142zM82.117 63.799c-0.289 0.268-0.676 0.431-1.1 0.431-0.428 0-0.813-0.163-1.104-0.431-0.322-0.297-0.527-0.724-0.527-1.199 0-0.102 0.012-0.199 0.027-0.296 0.141-0.758 0.803-1.333 1.604-1.333 0.799 0 1.461 0.575 1.6 1.333 0.018 0.097 0.029 0.194 0.029 0.296C82.646 63.075 82.441 63.502 82.117 63.799z" fill="black"></path><path d="M92.322 58.836c-0.021-2.492 0.049-4.961-0.043-7.452-0.797-0.365-1.6-0.73-2.4-1.103-0.559-0.26-1.117-0.524-1.67-0.796-0.074-0.028-0.143-0.063-0.209-0.099-1.133-0.607-1.096-2.136-1.529-3.217-0.447-1.833-1.184-3.615-1.633-5.444-0.285-1.16-0.453-2.338-0.355-3.563-3.258-0.045-6.496-0.022-9.73 0-0.01 0-0.02 0-0.031 0 0 0.003 0 0.005 0 0.006l-0.016-0.015v4.012l0.016 0.015c-0.012 5.317-0.055 10.642-0.002 15.961H39.865c1.922 0.686 3.391 2.359 3.752 4.472 0.004 0.02 0.006 0.039 0.008 0.058h31.166c0.799-2.537 2.787-4.984 5.645-5.144 3.156-0.459 6.082 1.966 6.768 4.983 2.08 0.022 4.16 0.022 6.242 0.022 0-0.869 0.021-1.761 0.021-2.629C93.078 58.882 92.713 58.859 92.322 58.836zM79.02 49.052c-0.023-2.424-0.07-4.848 0.021-7.271 1.625 0 3.27-0.023 4.895 0.046 0.639 2.4 1.416 4.777 2.057 7.2C83.66 49.074 81.352 49.052 79.02 49.052z" fill="black"></path></g><path d="M26.908 34.866c0-0.483-0.393-0.875-0.875-0.875H7.408c-0.484 0-0.875 0.392-0.875 0.875l0 0c0 0.483 0.391 0.875 0.875 0.875h18.625C26.516 35.741 26.908 35.35 26.908 34.866L26.908 34.866z" fill="black"></path><path d="M26.908 40.866c0-0.483-0.393-0.875-0.875-0.875H7.408c-0.484 0-0.875 0.392-0.875 0.875l0 0c0 0.483 0.391 0.875 0.875 0.875h18.625C26.516 41.741 26.908 41.35 26.908 40.866L26.908 40.866z" fill="black"></path><path d="M26.908 46.866c0-0.483-0.393-0.875-0.875-0.875H7.408c-0.484 0-0.875 0.392-0.875 0.875l0 0c0 0.483 0.391 0.875 0.875 0.875h18.625C26.516 47.741 26.908 47.35 26.908 46.866L26.908 46.866z" fill="black"></path><path d="M26.908 52.866c0-0.483-0.393-0.875-0.875-0.875H7.408c-0.484 0-0.875 0.392-0.875 0.875l0 0c0 0.483 0.391 0.875 0.875 0.875h18.625C26.516 53.741 26.908 53.35 26.908 52.866L26.908 52.866z" fill="black"></path></g></svg></g></svg></g></svg></g><defs><mask></mask></defs></svg><rect width="395.52" height="60.83625609879488" fill="black" stroke="none" visibility="hidden"></rect></g></mask><linearGradient x1="0" x2="1" y1="0.5" y2="0.5" id="b05a1b1e-1495-4140-8e2c-21e9dfff5ccc"><stop stop-color="#f00b51" offset="0"></stop><stop stop-color="#730062" offset="1"></stop></linearGradient><rect width="395.52" height="60.83625609879488" fill="url(#b05a1b1e-1495-4140-8e2c-21e9dfff5ccc)" mask="url(#c7307479-862e-4137-8298-05f118316491)" data-fill-palette-color="primary"></rect><mask id="d49aa361-5403-46db-8731-8cd2b8f814fb"><g id="SvgjsG1041"><svg viewBox="0 0 395.52 60.83625609879488" height="60.83625609879488" width="395.52"><g><svg viewBox="0 0 660.2690991821165 101.5582018910898" height="60.83625609879488" width="395.52"><g transform="matrix(1,0,0,1,264.74909918211654,7.746901183357025)"><svg viewBox="0 0 395.52 86.06439952437574" height="86.06439952437574" width="395.52"><g id="SvgjsG1040"><svg viewBox="0 0 395.52 86.06439952437574" height="86.06439952437574" width="395.52" id="SvgjsSvg1039"><g><svg viewBox="0 0 395.52 86.06439952437574" height="86.06439952437574" width="395.52"><g transform="matrix(1,0,0,1,0,0)"><svg width="395.52" viewBox="2.35 -36 169.44 36.6" height="86.06439952437574" data-palette-color="url(#b05a1b1e-1495-4140-8e2c-21e9dfff5ccc)"><g class="wordmark-text-0" data-fill-palette-color="primary" id="SvgjsG1038"></g></svg></g></svg></g></svg></g></svg></g><g><svg viewBox="0 0 244.43135999999998 101.5582018910898" height="101.5582018910898" width="244.43135999999998"><g><svg xmlns="http://www.w3.org/2000/svg" xmlns:xlink="http://www.w3.org/1999/xlink" version="1.1" x="0" y="0" viewBox="6.533 31.94 86.93400000000001 36.120000000000005" enable-background="new 0 0 100 100" xml:space="preserve" height="101.5582018910898" width="244.43135999999998" class="icon-icon-0" data-fill-palette-color="accent" id="SvgjsSvg1037"><g fill="white"><g fill="white"><path fill="black" d="M80.537 60.971c-0.801 0-1.465 0.575-1.604 1.333-0.018 0.097-0.027 0.194-0.027 0.296 0 0.476 0.205 0.902 0.527 1.199 0.291 0.268 0.676 0.431 1.104 0.431 0.424 0 0.809-0.163 1.1-0.431 0.324-0.297 0.529-0.724 0.529-1.199 0-0.102-0.012-0.199-0.027-0.296C81.998 61.546 81.334 60.971 80.537 60.971z"></path><path fill="black" d="M38.76 61.671c-0.293-0.424-0.783-0.701-1.336-0.701-0.555 0-1.045 0.277-1.338 0.701-0.129 0.187-0.223 0.401-0.266 0.633-0.016 0.097-0.027 0.194-0.027 0.296 0 0.476 0.203 0.901 0.529 1.199 0.289 0.267 0.676 0.431 1.102 0.431 0.424 0 0.811-0.164 1.1-0.431 0.326-0.298 0.529-0.724 0.529-1.199 0-0.102-0.01-0.199-0.027-0.296C38.982 62.072 38.891 61.857 38.76 61.671z"></path><path fill="black" d="M78.563 41.781c-0.094 2.423-0.047 4.847-0.023 7.271 2.33 0 4.639 0.022 6.973-0.024-0.641-2.423-1.418-4.8-2.059-7.2C81.832 41.758 80.184 41.781 78.563 41.781z"></path><path d="M37.676 57.142h-0.027c-2.691 0.007-4.926 1.961-5.365 4.529-0.053 0.302-0.082 0.612-0.082 0.929 0 3.015 2.445 5.46 5.461 5.46s5.459-2.445 5.459-5.46c0-0.316-0.029-0.627-0.08-0.929C42.6 59.103 40.367 57.148 37.676 57.142zM38.764 63.799c-0.291 0.267-0.676 0.431-1.102 0.431s-0.811-0.164-1.102-0.431c-0.324-0.298-0.527-0.724-0.527-1.199 0-0.102 0.01-0.199 0.027-0.296 0.043-0.231 0.135-0.446 0.264-0.633 0.295-0.424 0.783-0.701 1.338-0.701s1.043 0.277 1.338 0.701c0.129 0.187 0.221 0.401 0.264 0.633 0.018 0.097 0.029 0.194 0.029 0.296C39.293 63.075 39.088 63.501 38.764 63.799z" fill="white"></path><path d="M35.463 57.142h-4.605v4.529h0.842c0.004-0.019 0.006-0.038 0.01-0.058C32.072 59.501 33.541 57.827 35.463 57.142z" fill="white"></path><polygon points="71.568,35.853 81.359,35.853 81.359,31.94 30.764,31.94 30.764,55.259 71.568,55.259   " fill="white"></polygon><path d="M81.018 57.142c-3.016 0-5.461 2.443-5.461 5.458s2.445 5.46 5.461 5.46c3.014 0 5.459-2.445 5.459-5.46S84.031 57.142 81.018 57.142zM82.117 63.799c-0.289 0.268-0.676 0.431-1.1 0.431-0.428 0-0.813-0.163-1.104-0.431-0.322-0.297-0.527-0.724-0.527-1.199 0-0.102 0.012-0.199 0.027-0.296 0.141-0.758 0.803-1.333 1.604-1.333 0.799 0 1.461 0.575 1.6 1.333 0.018 0.097 0.029 0.194 0.029 0.296C82.646 63.075 82.441 63.502 82.117 63.799z" fill="white"></path><path d="M92.322 58.836c-0.021-2.492 0.049-4.961-0.043-7.452-0.797-0.365-1.6-0.73-2.4-1.103-0.559-0.26-1.117-0.524-1.67-0.796-0.074-0.028-0.143-0.063-0.209-0.099-1.133-0.607-1.096-2.136-1.529-3.217-0.447-1.833-1.184-3.615-1.633-5.444-0.285-1.16-0.453-2.338-0.355-3.563-3.258-0.045-6.496-0.022-9.73 0-0.01 0-0.02 0-0.031 0 0 0.003 0 0.005 0 0.006l-0.016-0.015v4.012l0.016 0.015c-0.012 5.317-0.055 10.642-0.002 15.961H39.865c1.922 0.686 3.391 2.359 3.752 4.472 0.004 0.02 0.006 0.039 0.008 0.058h31.166c0.799-2.537 2.787-4.984 5.645-5.144 3.156-0.459 6.082 1.966 6.768 4.983 2.08 0.022 4.16 0.022 6.242 0.022 0-0.869 0.021-1.761 0.021-2.629C93.078 58.882 92.713 58.859 92.322 58.836zM79.02 49.052c-0.023-2.424-0.07-4.848 0.021-7.271 1.625 0 3.27-0.023 4.895 0.046 0.639 2.4 1.416 4.777 2.057 7.2C83.66 49.074 81.352 49.052 79.02 49.052z" fill="white"></path></g><path d="M26.908 34.866c0-0.483-0.393-0.875-0.875-0.875H7.408c-0.484 0-0.875 0.392-0.875 0.875l0 0c0 0.483 0.391 0.875 0.875 0.875h18.625C26.516 35.741 26.908 35.35 26.908 34.866L26.908 34.866z" fill="white"></path><path d="M26.908 40.866c0-0.483-0.393-0.875-0.875-0.875H7.408c-0.484 0-0.875 0.392-0.875 0.875l0 0c0 0.483 0.391 0.875 0.875 0.875h18.625C26.516 41.741 26.908 41.35 26.908 40.866L26.908 40.866z" fill="white"></path><path d="M26.908 46.866c0-0.483-0.393-0.875-0.875-0.875H7.408c-0.484 0-0.875 0.392-0.875 0.875l0 0c0 0.483 0.391 0.875 0.875 0.875h18.625C26.516 47.741 26.908 47.35 26.908 46.866L26.908 46.866z" fill="white"></path><path d="M26.908 52.866c0-0.483-0.393-0.875-0.875-0.875H7.408c-0.484 0-0.875 0.392-0.875 0.875l0 0c0 0.483 0.391 0.875 0.875 0.875h18.625C26.516 53.741 26.908 53.35 26.908 52.866L26.908 52.866z" fill="white"></path></g></svg></g></svg></g></svg></g><defs><mask></mask></defs><mask><g id="SvgjsG1036"><svg viewBox="0 0 395.52 60.83625609879488" height="60.83625609879488" width="395.52"><g><svg viewBox="0 0 660.2690991821165 101.5582018910898" height="60.83625609879488" width="395.52"><g transform="matrix(1,0,0,1,264.74909918211654,7.746901183357025)"><svg viewBox="0 0 395.52 86.06439952437574" height="86.06439952437574" width="395.52"><g id="SvgjsG1035"><svg viewBox="0 0 395.52 86.06439952437574" height="86.06439952437574" width="395.52" id="SvgjsSvg1034"><g><svg viewBox="0 0 395.52 86.06439952437574" height="86.06439952437574" width="395.52"><g transform="matrix(1,0,0,1,0,0)"><svg width="395.52" viewBox="2.35 -36 169.44 36.6" height="86.06439952437574" data-palette-color="url(#b05a1b1e-1495-4140-8e2c-21e9dfff5ccc)"><g class="wordmark-text-0" data-fill-palette-color="primary" id="SvgjsG1033"><path d="M19.05 0.6L19.05 0.6Q13.9 0.6 10.18-1.68 6.45-3.95 4.4-8.03 2.35-12.1 2.35-17.5L2.35-17.5Q2.35-22.85 4.4-26.93 6.45-31 10.18-33.3 13.9-35.6 19.05-35.6L19.05-35.6Q25.05-35.6 28.83-32.73 32.6-29.85 33.65-24.7L33.65-24.7 29-24.7Q28.2-27.95 25.73-29.93 23.25-31.9 19.05-31.9L19.05-31.9Q15.3-31.9 12.5-30.18 9.7-28.45 8.18-25.23 6.65-22 6.65-17.5L6.65-17.5Q6.65-13 8.18-9.78 9.7-6.55 12.5-4.83 15.3-3.1 19.05-3.1L19.05-3.1Q23.25-3.1 25.73-5.03 28.2-6.95 29-10.15L29-10.15 33.65-10.15Q32.6-5.1 28.83-2.25 25.05 0.6 19.05 0.6ZM47.7 0.6L47.7 0.6Q44.6 0.6 42.55-0.45 40.5-1.5 39.5-3.25 38.5-5 38.5-7.05L38.5-7.05Q38.5-10.85 41.4-12.9 44.3-14.95 49.3-14.95L49.3-14.95 56-14.95 56-15.25Q56-18.5 54.3-20.18 52.6-21.85 49.75-21.85L49.75-21.85Q47.3-21.85 45.52-20.63 43.75-19.4 43.3-17.05L43.3-17.05 39-17.05Q39.25-19.75 40.82-21.6 42.4-23.45 44.75-24.43 47.1-25.4 49.75-25.4L49.75-25.4Q54.95-25.4 57.57-22.63 60.2-19.85 60.2-15.25L60.2-15.25 60.2 0 56.45 0 56.2-4.45Q55.15-2.35 53.12-0.88 51.1 0.6 47.7 0.6ZM48.35-2.95L48.35-2.95Q50.75-2.95 52.47-4.2 54.2-5.45 55.1-7.45 56-9.45 56-11.65L56-11.65 56-11.7 49.65-11.7Q45.95-11.7 44.42-10.43 42.9-9.15 42.9-7.25L42.9-7.25Q42.9-5.3 44.32-4.13 45.75-2.95 48.35-2.95ZM70.7 0L66.5 0 66.5-24.8 70.3-24.8 70.64-20.05Q71.8-22.5 74.15-23.95 76.5-25.4 79.95-25.4L79.95-25.4 79.95-21 78.8-21Q76.59-21 74.75-20.23 72.9-19.45 71.8-17.6 70.7-15.75 70.7-12.5L70.7-12.5 70.7 0ZM105.39 0L84.89 0 84.89-35 89.09-35 89.09-3.35 105.39-3.35 105.39 0ZM113.44-30.3L113.44-30.3Q112.19-30.3 111.37-31.13 110.54-31.95 110.54-33.2L110.54-33.2Q110.54-34.4 111.37-35.2 112.19-36 113.44-36L113.44-36Q114.64-36 115.49-35.2 116.34-34.4 116.34-33.2L116.34-33.2Q116.34-31.95 115.49-31.13 114.64-30.3 113.44-30.3ZM115.54 0L111.34 0 111.34-24.8 115.54-24.8 115.54 0ZM134.84 0L129.99 0 120.59-24.8 124.99-24.8 132.44-4.05 139.94-24.8 144.24-24.8 134.84 0ZM160.04 0.6L160.04 0.6Q156.49 0.6 153.74-1.03 150.99-2.65 149.41-5.55 147.84-8.45 147.84-12.4L147.84-12.4Q147.84-16.3 149.39-19.23 150.94-22.15 153.71-23.78 156.49-25.4 160.14-25.4L160.14-25.4Q163.74-25.4 166.36-23.78 168.99-22.15 170.39-19.5 171.79-16.85 171.79-13.8L171.79-13.8Q171.79-13.25 171.76-12.7 171.74-12.15 171.74-11.45L171.74-11.45 151.99-11.45Q152.14-8.6 153.31-6.73 154.49-4.85 156.26-3.9 158.04-2.95 160.04-2.95L160.04-2.95Q162.64-2.95 164.39-4.15 166.14-5.35 166.94-7.4L166.94-7.4 171.09-7.4Q170.09-3.95 167.26-1.68 164.44 0.6 160.04 0.6ZM160.04-21.85L160.04-21.85Q157.04-21.85 154.71-20.03 152.39-18.2 152.04-14.7L152.04-14.7 167.64-14.7Q167.49-18.05 165.34-19.95 163.19-21.85 160.04-21.85Z" fill="black"></path></g></svg></g></svg></g></svg></g></svg></g><g><svg viewBox="0 0 244.43135999999998 101.5582018910898" height="101.5582018910898" width="244.43135999999998"><g><svg xmlns="http://www.w3.org/2000/svg" xmlns:xlink="http://www.w3.org/1999/xlink" version="1.1" x="0" y="0" viewBox="6.533 31.94 86.93400000000001 36.120000000000005" enable-background="new 0 0 100 100" xml:space="preserve" height="101.5582018910898" width="244.43135999999998" class="icon-icon-0" data-fill-palette-color="accent" id="SvgjsSvg1032"><g fill="black"><g fill="black"><path fill="black" d="M80.537 60.971c-0.801 0-1.465 0.575-1.604 1.333-0.018 0.097-0.027 0.194-0.027 0.296 0 0.476 0.205 0.902 0.527 1.199 0.291 0.268 0.676 0.431 1.104 0.431 0.424 0 0.809-0.163 1.1-0.431 0.324-0.297 0.529-0.724 0.529-1.199 0-0.102-0.012-0.199-0.027-0.296C81.998 61.546 81.334 60.971 80.537 60.971z"></path><path fill="black" d="M38.76 61.671c-0.293-0.424-0.783-0.701-1.336-0.701-0.555 0-1.045 0.277-1.338 0.701-0.129 0.187-0.223 0.401-0.266 0.633-0.016 0.097-0.027 0.194-0.027 0.296 0 0.476 0.203 0.901 0.529 1.199 0.289 0.267 0.676 0.431 1.102 0.431 0.424 0 0.811-0.164 1.1-0.431 0.326-0.298 0.529-0.724 0.529-1.199 0-0.102-0.01-0.199-0.027-0.296C38.982 62.072 38.891 61.857 38.76 61.671z"></path><path fill="black" d="M78.563 41.781c-0.094 2.423-0.047 4.847-0.023 7.271 2.33 0 4.639 0.022 6.973-0.024-0.641-2.423-1.418-4.8-2.059-7.2C81.832 41.758 80.184 41.781 78.563 41.781z"></path><path d="M37.676 57.142h-0.027c-2.691 0.007-4.926 1.961-5.365 4.529-0.053 0.302-0.082 0.612-0.082 0.929 0 3.015 2.445 5.46 5.461 5.46s5.459-2.445 5.459-5.46c0-0.316-0.029-0.627-0.08-0.929C42.6 59.103 40.367 57.148 37.676 57.142zM38.764 63.799c-0.291 0.267-0.676 0.431-1.102 0.431s-0.811-0.164-1.102-0.431c-0.324-0.298-0.527-0.724-0.527-1.199 0-0.102 0.01-0.199 0.027-0.296 0.043-0.231 0.135-0.446 0.264-0.633 0.295-0.424 0.783-0.701 1.338-0.701s1.043 0.277 1.338 0.701c0.129 0.187 0.221 0.401 0.264 0.633 0.018 0.097 0.029 0.194 0.029 0.296C39.293 63.075 39.088 63.501 38.764 63.799z" fill="black"></path><path d="M35.463 57.142h-4.605v4.529h0.842c0.004-0.019 0.006-0.038 0.01-0.058C32.072 59.501 33.541 57.827 35.463 57.142z" fill="black"></path><polygon points="71.568,35.853 81.359,35.853 81.359,31.94 30.764,31.94 30.764,55.259 71.568,55.259   " fill="black"></polygon><path d="M81.018 57.142c-3.016 0-5.461 2.443-5.461 5.458s2.445 5.46 5.461 5.46c3.014 0 5.459-2.445 5.459-5.46S84.031 57.142 81.018 57.142zM82.117 63.799c-0.289 0.268-0.676 0.431-1.1 0.431-0.428 0-0.813-0.163-1.104-0.431-0.322-0.297-0.527-0.724-0.527-1.199 0-0.102 0.012-0.199 0.027-0.296 0.141-0.758 0.803-1.333 1.604-1.333 0.799 0 1.461 0.575 1.6 1.333 0.018 0.097 0.029 0.194 0.029 0.296C82.646 63.075 82.441 63.502 82.117 63.799z" fill="black"></path><path d="M92.322 58.836c-0.021-2.492 0.049-4.961-0.043-7.452-0.797-0.365-1.6-0.73-2.4-1.103-0.559-0.26-1.117-0.524-1.67-0.796-0.074-0.028-0.143-0.063-0.209-0.099-1.133-0.607-1.096-2.136-1.529-3.217-0.447-1.833-1.184-3.615-1.633-5.444-0.285-1.16-0.453-2.338-0.355-3.563-3.258-0.045-6.496-0.022-9.73 0-0.01 0-0.02 0-0.031 0 0 0.003 0 0.005 0 0.006l-0.016-0.015v4.012l0.016 0.015c-0.012 5.317-0.055 10.642-0.002 15.961H39.865c1.922 0.686 3.391 2.359 3.752 4.472 0.004 0.02 0.006 0.039 0.008 0.058h31.166c0.799-2.537 2.787-4.984 5.645-5.144 3.156-0.459 6.082 1.966 6.768 4.983 2.08 0.022 4.16 0.022 6.242 0.022 0-0.869 0.021-1.761 0.021-2.629C93.078 58.882 92.713 58.859 92.322 58.836zM79.02 49.052c-0.023-2.424-0.07-4.848 0.021-7.271 1.625 0 3.27-0.023 4.895 0.046 0.639 2.4 1.416 4.777 2.057 7.2C83.66 49.074 81.352 49.052 79.02 49.052z" fill="black"></path></g><path d="M26.908 34.866c0-0.483-0.393-0.875-0.875-0.875H7.408c-0.484 0-0.875 0.392-0.875 0.875l0 0c0 0.483 0.391 0.875 0.875 0.875h18.625C26.516 35.741 26.908 35.35 26.908 34.866L26.908 34.866z" fill="black"></path><path d="M26.908 40.866c0-0.483-0.393-0.875-0.875-0.875H7.408c-0.484 0-0.875 0.392-0.875 0.875l0 0c0 0.483 0.391 0.875 0.875 0.875h18.625C26.516 41.741 26.908 41.35 26.908 40.866L26.908 40.866z" fill="black"></path><path d="M26.908 46.866c0-0.483-0.393-0.875-0.875-0.875H7.408c-0.484 0-0.875 0.392-0.875 0.875l0 0c0 0.483 0.391 0.875 0.875 0.875h18.625C26.516 47.741 26.908 47.35 26.908 46.866L26.908 46.866z" fill="black"></path><path d="M26.908 52.866c0-0.483-0.393-0.875-0.875-0.875H7.408c-0.484 0-0.875 0.392-0.875 0.875l0 0c0 0.483 0.391 0.875 0.875 0.875h18.625C26.516 53.741 26.908 53.35 26.908 52.866L26.908 52.866z" fill="black"></path></g></svg></g></svg></g></svg></g><defs><mask></mask></defs></svg><rect width="395.52" height="60.83625609879488" fill="black" stroke="none" visibility="hidden"></rect></g></mask></svg><rect width="395.52" height="60.83625609879488" fill="black" stroke="none" visibility="hidden"></rect></g></mask><linearGradient x1="0" x2="1" y1="0.5" y2="0.5" id="a674a957-71fb-4207-b58f-cd010f884915"><stop stop-color="#f00b51" offset="0"></stop><stop stop-color="#730062" offset="1"></stop></linearGradient><rect width="395.52" height="60.83625609879488" fill="url(#a674a957-71fb-4207-b58f-cd010f884915)" mask="url(#d49aa361-5403-46db-8731-8cd2b8f814fb)" data-fill-palette-color="accent"></rect></svg><rect width="395.52" height="60.83625609879488" fill="none" stroke="none" visibility="hidden"></rect></g></svg></g></svg>